<svg xmlns="http://www.w3.org/2000/svg" width="48" height="29.814" viewBox="0 0 48 29.814">
  <g id="Group_191" data-name="Group 191" transform="translate(-261.733 -8319.059)">
    <g id="Group_188" data-name="Group 188">
      <rect id="Rectangle_163" data-name="Rectangle 163" width="48" height="2" transform="translate(261.733 8333.059)" fill="#fff"/>
      <path id="Rectangle_164" data-name="Rectangle 164" d="M0,0H21.359a0,0,0,0,1,0,0V0a2.42,2.42,0,0,1-2.42,2.42H0a0,0,0,0,1,0,0V0A0,0,0,0,1,0,0Z" transform="translate(294.444 8319.059) rotate(45)" fill="#fff"/>
      <path id="Rectangle_165" data-name="Rectangle 165" d="M0,0H18.94a2.42,2.42,0,0,1,2.42,2.42v0a0,0,0,0,1,0,0H0a0,0,0,0,1,0,0V0A0,0,0,0,1,0,0Z" transform="translate(292.733 8347.162) rotate(-45)" fill="#fff"/>
    </g>
  </g>
</svg>
