<svg xmlns="http://www.w3.org/2000/svg" xmlns:xlink="http://www.w3.org/1999/xlink" width="50.146" height="50.27" viewBox="0 0 50.146 50.27">
  <defs>
    <clipPath id="clip-path">
      <rect id="Rectangle_2089" data-name="Rectangle 2089" width="50.146" height="50.27" fill="#fff"/>
    </clipPath>
  </defs>
  <g id="Group_7787" data-name="Group 7787" transform="translate(0 0)">
    <g id="Group_7780" data-name="Group 7780" transform="translate(0 0)" clip-path="url(#clip-path)">
      <path id="Path_19265" data-name="Path 19265" d="M0,50.269,3.6,36.822a24.881,24.881,0,1,1,9.911,9.826Zm14.188-8.66.851.507a20.2,20.2,0,1,0-6.912-6.85l.523.858L6.638,43.632Z" transform="translate(0 0.001)" fill="#fff"/>
      <path id="Path_19266" data-name="Path 19266" d="M30.611,24.288c-1.022-.611-2.351-1.294-3.556-.8-.924.378-1.513,1.824-2.111,2.562A.884.884,0,0,1,23.8,26.3a16.108,16.108,0,0,1-8.037-6.885.985.985,0,0,1,.125-1.345,5.452,5.452,0,0,0,1.461-2.37,5.183,5.183,0,0,0-.654-2.806c-.484-1.044-1.026-2.532-2.071-3.121a2.839,2.839,0,0,0-3.082.457,6.259,6.259,0,0,0-2.17,4.957,7.03,7.03,0,0,0,.195,1.573,12.993,12.993,0,0,0,1.51,3.478,27.623,27.623,0,0,0,1.574,2.4,24.347,24.347,0,0,0,6.834,6.344A20.66,20.66,0,0,0,23.744,31c1.669.553,3.157,1.127,4.96.784a6.007,6.007,0,0,0,4.5-3.346,2.914,2.914,0,0,0,.209-1.708c-.257-1.176-1.848-1.875-2.8-2.444" transform="translate(3.943 3.994)" fill="#fff" fill-rule="evenodd"/>
    </g>
  </g>
</svg>
