<svg xmlns="http://www.w3.org/2000/svg" xmlns:xlink="http://www.w3.org/1999/xlink" width="35.295" height="35.382" viewBox="0 0 35.295 35.382">
  <defs>
    <clipPath id="clip-path">
      <rect id="Rectangle_2089" data-name="Rectangle 2089" width="35.295" height="35.382" transform="translate(0 0)" fill="#fff"/>
    </clipPath>
  </defs>
  <g id="Group_7780" data-name="Group 7780" transform="translate(0 0)" clip-path="url(#clip-path)">
    <path id="Path_19265" data-name="Path 19265" d="M0,35.381l2.537-9.464a17.512,17.512,0,1,1,6.976,6.916Zm9.986-6.1.6.357A14.217,14.217,0,1,0,5.72,24.822l.368.6L4.672,30.71Z" fill="#fff"/>
    <path id="Path_19266" data-name="Path 19266" d="M24.32,19.906a2.938,2.938,0,0,0-2.5-.564c-.65.266-1.065,1.284-1.486,1.8a.622.622,0,0,1-.806.175,11.338,11.338,0,0,1-5.657-4.846.693.693,0,0,1,.088-.947,3.837,3.837,0,0,0,1.028-1.668,3.648,3.648,0,0,0-.46-1.975,4.674,4.674,0,0,0-1.458-2.2,2,2,0,0,0-2.169.322A4.406,4.406,0,0,0,9.37,13.5,4.948,4.948,0,0,0,9.507,14.6a9.145,9.145,0,0,0,1.063,2.448,19.442,19.442,0,0,0,1.108,1.687,17.137,17.137,0,0,0,4.81,4.465,14.541,14.541,0,0,0,3,1.426,6.657,6.657,0,0,0,3.491.552,4.228,4.228,0,0,0,3.166-2.355,2.051,2.051,0,0,0,.147-1.2c-.181-.828-1.3-1.32-1.971-1.72" fill="#fff" fill-rule="evenodd"/>
  </g>
</svg>
