<svg xmlns="http://www.w3.org/2000/svg" width="34.925" height="34.925" viewBox="0 0 34.925 34.925">
  <g id="Group_7945" data-name="Group 7945" transform="translate(-197.075)">
    <path id="Path_19008" data-name="Path 19008" d="M5.821,0H29.1a5.821,5.821,0,0,1,5.821,5.821V29.1A5.821,5.821,0,0,1,29.1,34.925H5.821A5.821,5.821,0,0,1,0,29.1V5.821A5.821,5.821,0,0,1,5.821,0Z" transform="translate(197.075)" fill="#fff" opacity="0.282"/>
    <g id="P83Nsk.tif" transform="translate(208.773 7.704)">
      <g id="Group_44" data-name="Group 44">
        <path id="Path_35" data-name="Path 35" d="M170.076,914.169a.307.307,0,0,1,.025-.049,3.766,3.766,0,0,1,4.3-1.185,3.253,3.253,0,0,1,1.277.894,3.717,3.717,0,0,1,.585,1.071,3.337,3.337,0,0,1,.235,1.251c0,1.876,0,3.752,0,5.628,0,.026,0,.052,0,.078s-.016.057-.055.054h-2.566c-.1,0-.1,0-.1-.1q0-2.406.006-4.813a1.982,1.982,0,0,0-.25-1.041,1.5,1.5,0,0,0-1.079-.718,2.064,2.064,0,0,0-1.386.218,1.6,1.6,0,0,0-.7.831,2.25,2.25,0,0,0-.168.877q0,2.318,0,4.636c0,.111,0,.111-.112.111h-2.509c-.092,0-.093,0-.093-.094q0-4.43,0-8.86c0-.1,0-.1.1-.1h2.368c.093,0,.093,0,.093.1q0,.556,0,1.113c0,.029,0,.058.007.087Z" transform="translate(-162.911 -908.286)" fill="#fff"/>
        <path id="Path_36" data-name="Path 36" d="M137.092,918.548v4.423c0,.1,0,.1-.1.1q-1.294,0-2.587,0c-.07,0-.093-.015-.093-.089q0-4.438,0-8.875c0-.072.02-.093.092-.092q1.3,0,2.6,0c.091,0,.091,0,.091.1Z" transform="translate(-134.103 -909.449)" fill="#fff"/>
        <path id="Path_37" data-name="Path 37" d="M135.945,880.915a1.6,1.6,0,1,1-1.587-1.6A1.6,1.6,0,0,1,135.945,880.915Z" transform="translate(-132.753 -879.314)" fill="#fff"/>
      </g>
    </g>
  </g>
</svg>
