<svg xmlns="http://www.w3.org/2000/svg" xmlns:xlink="http://www.w3.org/1999/xlink" width="178.176" height="32.087" viewBox="0 0 178.176 32.087">
  <defs>
    <clipPath id="clip-path">
      <rect id="Rectangle_15" data-name="Rectangle 15" width="178.176" height="32.087" fill="#eee"/>
    </clipPath>
  </defs>
  <g id="Group_6" data-name="Group 6" transform="translate(0 0)">
    <g id="Group_5" data-name="Group 5" transform="translate(0 0)" clip-path="url(#clip-path)">
      <path id="Path_1" data-name="Path 1" d="M99.494,96.857c0,.569-.246,1-1.254,1H94.849V95.842H98.24c1,0,1.254.431,1.254.984Zm-5.253-1.523V100.4h.608V98.349H98.3c1.354,0,1.822-.554,1.822-1.5v-.031c0-.931-.469-1.484-1.822-1.484Z" transform="translate(-67.616 -68.4)" fill="#eee"/>
      <path id="Path_2" data-name="Path 2" d="M137.321,95.819c.884,0,1.138.423,1.154.977v.054c0,.561-.246,1.015-1.154,1.015h-3.438V95.819Zm1.923,4.584-1.9-2.107h.016c1.261,0,1.738-.538,1.738-1.469v-.054c-.016-.907-.492-1.438-1.738-1.438h-4.084V100.4h.608V98.295h2.738l1.907,2.107Z" transform="translate(-95.622 -68.4)" fill="#eee"/>
      <path id="Path_3" data-name="Path 3" d="M174.486,99.773c-2.338,0-3.13-.508-3.13-1.953V97.5c0-1.392.769-1.892,3.13-1.892s3.138.5,3.138,1.892v.315c0,1.446-.792,1.953-3.138,1.953m0,.523c2.784,0,3.761-.707,3.761-2.438v-.392c0-1.669-.977-2.377-3.761-2.377s-3.753.707-3.753,2.377v.392c0,1.73.977,2.438,3.753,2.438" transform="translate(-122.497 -68.224)" fill="#eee"/>
      <path id="Path_4" data-name="Path 4" d="M222.672,98.056c0,1.331-.677,1.83-2.115,1.83h-3.13V95.849h3.13c1.446,0,2.115.485,2.115,1.777Zm-5.853-2.722V100.4h3.722c1.907,0,2.761-.677,2.761-2.338v-.438c0-1.615-.854-2.292-2.761-2.292Z" transform="translate(-155.562 -68.4)" fill="#eee"/>
      <path id="Path_5" data-name="Path 5" d="M261.34,100.487c2.123,0,3.2-.777,3.2-2.815V95.334h-.6v2.392c0,1.646-.892,2.245-2.6,2.245s-2.592-.6-2.592-2.245V95.334h-.607v2.338c0,2.038,1.077,2.815,3.2,2.815" transform="translate(-185.21 -68.4)" fill="#eee"/>
      <path id="Path_6" data-name="Path 6" d="M302.789,100.315c2.7,0,3.607-.623,3.607-2.153v-.054h-.623v.054c0,1.192-.785,1.63-2.984,1.63s-2.976-.508-2.976-1.953v-.315c0-1.384.761-1.884,2.976-1.884,2.192,0,2.984.415,2.984,1.53v.085h.623v-.085c-.008-1.438-.923-2.053-3.607-2.053-2.707,0-3.6.708-3.6,2.369v.392c0,1.73.892,2.446,3.6,2.438" transform="translate(-214.662 -68.243)" fill="#eee"/>
      <path id="Path_7" data-name="Path 7" d="M338.988,95.334v.515h2.8V100.4h.6V95.849h2.8v-.515Z" transform="translate(-243.216 -68.4)" fill="#eee"/>
      <rect id="Rectangle_14" data-name="Rectangle 14" width="0.608" height="5.068" transform="translate(107.085 26.934)" fill="#eee"/>
      <path id="Path_8" data-name="Path 8" d="M404.425,99.773c-2.338,0-3.13-.508-3.13-1.953V97.5c0-1.392.769-1.892,3.13-1.892s3.138.5,3.138,1.892v.315c0,1.446-.792,1.953-3.138,1.953m0,.523c2.784,0,3.761-.707,3.761-2.438v-.392c0-1.669-.977-2.377-3.761-2.377s-3.753.707-3.753,2.377v.392c0,1.73.977,2.438,3.753,2.438" transform="translate(-287.472 -68.224)" fill="#eee"/>
      <path id="Path_9" data-name="Path 9" d="M452.579,99.663l-5.137-4.384h-.685v5.083h.569v-4.4l5.122,4.4h.692V95.279h-.561Z" transform="translate(-320.537 -68.361)" fill="#eee"/>
      <path id="Path_10" data-name="Path 10" d="M491.415,100.3c2.323,0,3.253-.446,3.253-1.538v-.023c0-.8-.515-1.215-1.784-1.292l-2.569-.138c-.969-.054-1.392-.3-1.392-.869v-.008c0-.577.515-.907,2.407-.907,1.738,0,2.5.4,2.5,1.146v.046h.623v-.054c0-.984-.885-1.576-3.1-1.576-2.346,0-3.022.507-3.03,1.369v.016c0,.861.646,1.223,1.884,1.292l2.553.138c.946.062,1.307.346,1.307.884V98.8c0,.792-.807,1.061-2.653,1.061-1.823,0-2.576-.438-2.576-1.238V98.6h-.623v.038c0,1.023.831,1.669,3.2,1.669" transform="translate(-350.283 -68.224)" fill="#eee"/>
      <path id="Path_11" data-name="Path 11" d="M22.2,14.918v4.071a0,0,0,0,1,0,0H6.7a6.541,6.541,0,0,1-2.617-.527A6.645,6.645,0,0,1,.527,14.913,6.537,6.537,0,0,1,0,12.3V.368a0,0,0,0,1,0,0H4.075a0,0,0,0,1,0,0V12.226a2.668,2.668,0,0,0,.607,1.753,2.553,2.553,0,0,0,2.01.934H22.2a0,0,0,0,1,0,0" transform="translate(0 -0.26)" fill="#eee"/>
      <path id="Path_12" data-name="Path 12" d="M87.723.123h4.071a0,0,0,0,1,0,0V12.054a2.665,2.665,0,0,0,.609,1.754,2.551,2.551,0,0,0,2.009.933H107.4a2.469,2.469,0,0,0,1.836-.765,2.555,2.555,0,0,0,.748-1.853v-12a0,0,0,0,1,0,0h4.1a0,0,0,0,1,0,0v12a6.62,6.62,0,0,1-1.972,4.743,6.938,6.938,0,0,1-2.141,1.428,6.455,6.455,0,0,1-2.584.527H94.416a6.531,6.531,0,0,1-2.617-.527,6.649,6.649,0,0,1-3.553-3.553,6.543,6.543,0,0,1-.527-2.618v-12a0,0,0,0,1,0,0" transform="translate(-62.936 -0.088)" fill="#eee"/>
      <path id="Path_13" data-name="Path 13" d="M305.309,10.131h18.212a0,0,0,0,0,0,0V6.807a2.68,2.68,0,0,0-.605-1.756,2.548,2.548,0,0,0-2.012-.937H307.994a2.672,2.672,0,0,0-1.756.607,2.55,2.55,0,0,0-.934,2.01v3.4a0,0,0,0,0,0,0M307.921,0h12.987a6.619,6.619,0,0,1,4.742,1.972,6.973,6.973,0,0,1,1.428,2.142,6.553,6.553,0,0,1,.527,2.617v12a0,0,0,0,1,0,0H323.53a0,0,0,0,1,0,0V14.249a0,0,0,0,0,0,0H305.309a0,0,0,0,0,0,0v4.479a0,0,0,0,1,0,0h-4.071a0,0,0,0,1,0,0v-12a6.539,6.539,0,0,1,.527-2.617,6.942,6.942,0,0,1,1.428-2.142A6.619,6.619,0,0,1,307.921,0" transform="translate(-216.121 0)" fill="#eee"/>
      <path id="Path_14" data-name="Path 14" d="M515.865,18.993h-4.072a0,0,0,0,1,0,0V.368a0,0,0,0,1,0,0h4.072a0,0,0,0,1,0,0V18.988a0,0,0,0,1,0,0" transform="translate(-367.196 -0.26)" fill="#eee"/>
      <path id="Path_15" data-name="Path 15" d="M541.368,10.131h18.213a0,0,0,0,0,0,0V6.811a2.686,2.686,0,0,0-.6-1.757,2.547,2.547,0,0,0-2.014-.94H544.053a2.673,2.673,0,0,0-1.756.607,2.55,2.55,0,0,0-.934,2.01v3.4a0,0,0,0,0,0,0M543.98,0h12.987a6.618,6.618,0,0,1,4.743,1.972,6.983,6.983,0,0,1,1.428,2.142,6.553,6.553,0,0,1,.527,2.617v12a0,0,0,0,1,0,0h-4.07a0,0,0,0,1,0,0V14.249a0,0,0,0,0,0,0H541.368a0,0,0,0,0,0,0v4.479a0,0,0,0,1,0,0h-4.071a0,0,0,0,1,0,0v-12a6.549,6.549,0,0,1,.527-2.617,6.96,6.96,0,0,1,1.428-2.142A6.62,6.62,0,0,1,543.98,0" transform="translate(-385.487 0)" fill="#eee"/>
      <path id="Path_16" data-name="Path 16" d="M202.26,7.5h0L194.883.122h-5.7a0,0,0,0,0,0,.008L198.584,9.5a.006.006,0,0,1,0,.006l-9.3,9.3a0,0,0,0,0,0,.007h5.7l7.273-7.272h0Z" transform="translate(-135.729 -0.087)" fill="#eee"/>
      <path id="Path_17" data-name="Path 17" d="M252.635,9.5,262.04.129a0,0,0,0,0,0-.007h-5.7L248.961,7.5h-.018v4.046h.018l7.272,7.272,0,0h5.7a0,0,0,0,0,0-.008l-9.3-9.3a0,0,0,0,1,0-.006" transform="translate(-178.611 -0.088)" fill="#eee"/>
      <path id="Path_18" data-name="Path 18" d="M417.344,13.466c-2.092-.034-2.173.236-3.057-.383-.4-.281-.369-1.463-.395-1.787a3.071,3.071,0,0,1,.127-.922,1.324,1.324,0,0,1,.443-.7,1.273,1.273,0,0,1,.853-.29h10.627a2.621,2.621,0,0,0,2.627-2.627,2.621,2.621,0,0,0-2.627-2.627H409.018v14.6h-4.094V.035L425.942,0A6.642,6.642,0,0,1,430.7,1.98a6.983,6.983,0,0,1,1.433,2.15,6.58,6.58,0,0,1,.529,2.627,6.582,6.582,0,0,1-.529,2.627,6.672,6.672,0,0,1-3.566,3.565,6.564,6.564,0,0,1-2.627.529h-2.388" transform="translate(-290.523 -0.001)" fill="#eee"/>
      <path id="Path_19" data-name="Path 19" d="M474.226,45.252l-5.829-.074a0,0,0,0,1,0,0l-5.54-5.954s0,0,0,0l2.98-2.774s0,0,0,0l5.54,5.954s2.848,2.851,2.846,2.853" transform="translate(-332.085 -26.149)" fill="#eee"/>
    </g>
  </g>
</svg>
